<svg width="35" height="51" viewBox="0 0 35 51" fill="none" xmlns="http://www.w3.org/2000/svg">
<g filter="url(#filter0_d)">
<path d="M17.5 0C10.0434 0 4 6.01538 4 13.4375C4 15.4426 4.44297 17.3481 5.23137 19.054L15.5146 41.2652C16.0077 42.3334 16.7143 43 17.5 43C18.2857 43 18.9924 42.3333 19.4854 41.2678L29.7686 19.054C30.5596 17.3481 31 15.4426 31 13.4375C31 6.01538 24.9566 0 17.5 0Z" fill="#F9BF51"/>
</g>
<path fill-rule="evenodd" clip-rule="evenodd" d="M12.75 12.375H10.5L18 5.625L25.5 12.375H23.25V18.375H18.75V13.875H17.25V18.375H12.75V12.375ZM21.75 11.0175L18 7.6425L14.25 11.0175V16.875H15.75V12.375H20.25V16.875H21.75V11.0175Z" fill="black"/>
<defs>
<filter id="filter0_d" x="0" y="0" width="35" height="51" filterUnits="userSpaceOnUse" color-interpolation-filters="sRGB">
<feFlood flood-opacity="0" result="BackgroundImageFix"/>
<feColorMatrix in="SourceAlpha" type="matrix" values="0 0 0 0 0 0 0 0 0 0 0 0 0 0 0 0 0 0 127 0"/>
<feOffset dy="4"/>
<feGaussianBlur stdDeviation="2"/>
<feColorMatrix type="matrix" values="0 0 0 0 0 0 0 0 0 0 0 0 0 0 0 0 0 0 0.25 0"/>
<feBlend mode="normal" in2="BackgroundImageFix" result="effect1_dropShadow"/>
<feBlend mode="normal" in="SourceGraphic" in2="effect1_dropShadow" result="shape"/>
</filter>
</defs>
</svg>
