<svg width="30" height="30" viewBox="0 0 30 30" fill="none" xmlns="http://www.w3.org/2000/svg">
<path fill-rule="evenodd" clip-rule="evenodd" d="M25.425 3.7875L25.625 3.75C25.975 3.75 26.25 4.025 26.25 4.375V23.275C26.25 23.5625 26.0625 23.7875 25.8 23.875L18.75 26.25L11.25 23.625L4.575 26.2125L4.375 26.25C4.025 26.25 3.75 25.975 3.75 25.625V6.725C3.75 6.4375 3.9375 6.2125 4.2 6.125L11.25 3.75L18.75 6.375L25.425 3.7875ZM17.5 8.58749L12.5 6.83749V21.4125L17.5 23.1625V8.58749ZM6.25 8.075L10 6.8125V21.4375L6.25 22.8875V8.075ZM20 23.1875L23.75 21.925V7.125L20 8.575V23.1875Z" fill="black" fill-opacity="0.54"/>
</svg>
