<svg width="20" height="20" viewBox="0 0 20 20" fill="none" xmlns="http://www.w3.org/2000/svg">
<path fill-rule="evenodd" clip-rule="evenodd" d="M3.3335 7.29582C3.3335 3.62082 6.32516 0.62915 10.0002 0.62915C13.6752 0.62915 16.6668 3.62082 16.6668 7.29582C16.6668 11.9375 10.8668 18.4125 10.6168 18.6875L10.0002 19.3708L9.3835 18.6875C9.1335 18.4125 3.3335 11.9375 3.3335 7.29582ZM5.00016 7.29582C5.00016 10.2458 8.1835 14.6791 10.0002 16.8541C11.4585 15.0958 15.0002 10.4875 15.0002 7.29582C15.0002 4.53748 12.7585 2.29582 10.0002 2.29582C7.24183 2.29582 5.00016 4.53748 5.00016 7.29582ZM10.0002 7.29582C10.6918 7.29582 11.2502 6.73748 11.2502 6.04582C11.2502 5.35415 10.6918 4.79582 10.0002 4.79582C9.3085 4.79582 8.75016 5.36248 8.75016 6.04582C8.75016 6.73748 9.3085 7.29582 10.0002 7.29582ZM7.50016 9.37915C7.50016 8.54582 9.16683 8.12915 10.0002 8.12915C10.8335 8.12915 12.5002 8.54582 12.5002 9.37915V9.47915C11.8918 10.1792 11.0002 10.6292 10.0002 10.6292C9.00016 10.6292 8.1085 10.1792 7.50016 9.47915V9.37915Z" fill="white"/>
</svg>
