<svg width="24" height="24" viewBox="0 0 24 24" fill="none" xmlns="http://www.w3.org/2000/svg">
<g id="rotate_left_24px">
<path id="icon/image/rotate_left_24px" fill-rule="evenodd" clip-rule="evenodd" d="M12.9649 2.53503V5.60503C16.9149 6.09503 19.9649 9.45503 19.9649 13.535C19.9649 17.615 16.9149 20.975 12.9649 21.465V19.445C15.8049 18.965 17.9649 16.505 17.9649 13.535C17.9649 10.565 15.8049 8.10503 12.9649 7.62503V11.535L8.41491 7.08503L12.9649 2.53503ZM5.66491 8.64503L7.07491 10.065C6.54491 10.815 6.19491 11.665 6.05491 12.535H4.03491C4.20491 11.145 4.76491 9.80503 5.66491 8.64503ZM4.03491 14.535H6.05491C6.19491 15.415 6.54491 16.255 7.06491 17.005L5.65491 18.425C4.75491 17.265 4.20491 15.925 4.03491 14.535ZM7.06491 19.855C8.22491 20.755 9.57491 21.295 10.9649 21.465V19.435C10.0949 19.285 9.25491 18.945 8.50491 18.405L7.06491 19.855Z" fill="white"/>
</g>
</svg>
