<svg width="24" height="24" viewBox="0 0 24 24" fill="none" xmlns="http://www.w3.org/2000/svg">
<g id="rotate_right_24px">
<path id="icon/image/rotate_right_24px" fill-rule="evenodd" clip-rule="evenodd" d="M11.0349 2.535L15.5849 7.085L11.0349 11.535V7.625C8.19491 8.105 6.03491 10.565 6.03491 13.535C6.03491 16.505 8.19491 18.965 11.0349 19.445V21.465C7.08491 20.975 4.03491 17.615 4.03491 13.535C4.03491 9.455 7.09491 6.095 11.0349 5.605V2.535ZM18.3449 8.645C19.2449 9.805 19.7949 11.145 19.9649 12.535H17.9449C17.8049 11.665 17.4649 10.815 16.9249 10.065L18.3449 8.645ZM13.0349 19.435V21.455C14.4249 21.285 15.7749 20.745 16.9349 19.845L15.4949 18.405C14.7449 18.945 13.9049 19.295 13.0349 19.435ZM18.3449 18.425L16.9249 17.015C17.4649 16.255 17.8049 15.405 17.9449 14.535H19.9649C19.7949 15.925 19.2449 17.265 18.3449 18.425Z" fill="white"/>
</g>
</svg>
