<svg width="30" height="30" viewBox="0 0 30 30" fill="none" xmlns="http://www.w3.org/2000/svg">
<path fill-rule="evenodd" clip-rule="evenodd" d="M24.3778 15C24.3778 15.425 24.3403 15.825 24.2903 16.225L26.9278 18.2875C27.1653 18.475 27.2278 18.8125 27.0778 19.0875L24.5778 23.4125C24.4653 23.6125 24.2528 23.725 24.0403 23.725C23.9653 23.725 23.8903 23.7125 23.8153 23.6875L20.7028 22.4375C20.0528 22.925 19.3528 23.35 18.5903 23.6625L18.1153 26.975C18.0778 27.275 17.8153 27.5 17.5028 27.5H12.5028C12.1903 27.5 11.9278 27.275 11.8903 26.975L11.4153 23.6625C10.6528 23.35 9.95279 22.9375 9.30279 22.4375L6.19029 23.6875C6.12779 23.7125 6.05279 23.725 5.97779 23.725C5.75279 23.725 5.54029 23.6125 5.42779 23.4125L2.92779 19.0875C2.77779 18.8125 2.84029 18.475 3.07779 18.2875L5.71529 16.225C5.66529 15.825 5.62779 15.4125 5.62779 15C5.62779 14.5875 5.66529 14.175 5.71529 13.775L3.07779 11.7125C2.84029 11.525 2.76529 11.1875 2.92779 10.9125L5.42779 6.5875C5.54029 6.3875 5.75279 6.275 5.96529 6.275C6.04029 6.275 6.11529 6.2875 6.19029 6.3125L9.30279 7.5625C9.95279 7.075 10.6528 6.65 11.4153 6.3375L11.8903 3.025C11.9278 2.725 12.1903 2.5 12.5028 2.5H17.5028C17.8153 2.5 18.0778 2.725 18.1153 3.025L18.5903 6.3375C19.3528 6.65 20.0528 7.0625 20.7028 7.5625L23.8153 6.3125C23.8778 6.2875 23.9528 6.275 24.0278 6.275C24.2528 6.275 24.4653 6.3875 24.5778 6.5875L27.0778 10.9125C27.2278 11.1875 27.1653 11.525 26.9278 11.7125L24.2903 13.775C24.3403 14.175 24.3778 14.575 24.3778 15ZM21.8778 15C21.8778 14.7375 21.8653 14.475 21.8153 14.0875L21.6403 12.675L22.7528 11.8L24.0903 10.7375L23.2153 9.225L21.6278 9.8625L20.3028 10.4L19.1653 9.525C18.6653 9.15 18.1653 8.8625 17.6278 8.6375L16.3028 8.1L16.1028 6.6875L15.8653 5H14.1278L13.8778 6.6875L13.6778 8.1L12.3528 8.6375C11.8403 8.85 11.3278 9.15 10.7903 9.55L9.66529 10.4L8.36529 9.875L6.77779 9.2375L5.90279 10.75L7.25279 11.8L8.36529 12.675L8.19029 14.0875C8.15279 14.4625 8.12779 14.75 8.12779 15C8.12779 15.25 8.15279 15.5375 8.19029 15.925L8.36529 17.3375L7.25279 18.2125L5.90279 19.2625L6.77779 20.775L8.36529 20.1375L9.69029 19.6L10.8278 20.475C11.3278 20.85 11.8278 21.1375 12.3653 21.3625L13.6903 21.9L13.8903 23.3125L14.1278 25H15.8778L16.1278 23.3125L16.3278 21.9L17.6528 21.3625C18.1653 21.15 18.6778 20.85 19.2153 20.45L20.3403 19.6L21.6403 20.125L23.2278 20.7625L24.1028 19.25L22.7528 18.2L21.6403 17.325L21.8153 15.9125C21.8528 15.5375 21.8778 15.2625 21.8778 15ZM15.0028 10C12.2403 10 10.0028 12.2375 10.0028 15C10.0028 17.7625 12.2403 20 15.0028 20C17.7653 20 20.0028 17.7625 20.0028 15C20.0028 12.2375 17.7653 10 15.0028 10ZM12.5028 15C12.5028 16.375 13.6278 17.5 15.0028 17.5C16.3778 17.5 17.5028 16.375 17.5028 15C17.5028 13.625 16.3778 12.5 15.0028 12.5C13.6278 12.5 12.5028 13.625 12.5028 15Z" fill="black" fill-opacity="0.54"/>
</svg>
