<svg width="431" height="556" viewBox="0 0 431 556" fill="none" xmlns="http://www.w3.org/2000/svg">
<path d="M423.5 185.5C429.407 191.431 427.927 223.75 429.615 234.13C431.302 244.51 427.505 309.331 416.957 379.66C408.518 435.924 345.37 499.841 314.85 524.767L302.192 541.714H276.243L259.788 554C258.171 552.729 254.936 549.636 254.936 547.433C254.936 545.23 254.936 540.301 254.936 538.112C254.936 535.359 254.177 529.427 251.139 527.733" stroke="#7BA130" stroke-width="2" stroke-linecap="round" stroke-dasharray="20 10"/>
<path d="M425 186.868C413.982 147.796 381.011 64.9974 337.277 46.3783C282.609 23.1044 157.593 -42.9089 63.7254 46.3783C-30.1424 135.665 8.20994 215.643 11.6002 228.55C14.9905 241.456 37.4509 287.581 34.0607 307.469C30.6704 327.358 -22.9381 478.85 54.1903 515.454C131.319 552.057 181.749 519.897 198.276 520.743C211.498 521.42 235.004 524.551 245.104 526.033" stroke="#7BA130" stroke-width="2" stroke-linecap="round" stroke-dasharray="20 10"/>
</svg>
