<svg width="30" height="29" viewBox="0 0 30 29" fill="none" xmlns="http://www.w3.org/2000/svg">
<path fill-rule="evenodd" clip-rule="evenodd" d="M21.875 1.35419C19.2547 1.35419 17.1354 3.47346 17.1354 6.09377C17.1354 9.64846 21.875 14.8959 21.875 14.8959C21.875 14.8959 26.6146 9.64846 26.6146 6.09377C26.6146 3.47346 24.4953 1.35419 21.875 1.35419ZM18.4896 6.09377C18.4896 4.22502 20.0063 2.70835 21.875 2.70835C23.7438 2.70835 25.2604 4.22502 25.2604 6.09377C25.2604 8.04377 23.3104 10.962 21.875 12.7834C20.4667 10.9755 18.4896 8.02346 18.4896 6.09377ZM20.1823 6.09377C20.1823 5.15891 20.9402 4.40106 21.875 4.40106C22.4798 4.40106 23.0386 4.72369 23.3409 5.24742C23.6433 5.77114 23.6433 6.4164 23.3409 6.94012C23.0386 7.46385 22.4798 7.78648 21.875 7.78648C20.9402 7.78648 20.1823 7.02863 20.1823 6.09377Z" fill="black" fill-opacity="0.54"/>
<path fill-rule="evenodd" clip-rule="evenodd" d="M8.75004 13.8542C5.92817 13.8542 3.64587 15.9735 3.64587 18.5938C3.64587 22.1485 8.75004 27.3959 8.75004 27.3959C8.75004 27.3959 13.8542 22.1485 13.8542 18.5938C13.8542 15.9735 11.5719 13.8542 8.75004 13.8542ZM5.10421 18.5938C5.10421 16.725 6.73754 15.2084 8.75004 15.2084C10.7625 15.2084 12.3959 16.725 12.3959 18.5938C12.3959 20.5438 10.2959 23.462 8.75004 25.2834C7.23337 23.4755 5.10421 20.5235 5.10421 18.5938ZM6.92712 18.5938C6.92712 17.6589 7.74327 16.9011 8.75004 16.9011C9.40131 16.9011 10.0031 17.2237 10.3287 17.7474C10.6544 18.2711 10.6544 18.9164 10.3287 19.4401C10.0031 19.9639 9.40131 20.2865 8.75004 20.2865C7.74327 20.2865 6.92712 19.5286 6.92712 18.5938Z" fill="black" fill-opacity="0.54"/>
<path d="M8.75 27.6923C12.5 27.9006 21.25 27.5425 19.375 23.7925C16.9869 19.0163 15.625 13.9423 21.875 15.1923" stroke="#757575" stroke-width="2"/>
</svg>
