<svg width="35" height="51" viewBox="0 0 35 51" fill="none" xmlns="http://www.w3.org/2000/svg">
<g filter="url(#filter0_d)">
<path d="M17.5 0C10.0434 0 4 6.01538 4 13.4375C4 15.4426 4.44297 17.3481 5.23137 19.054L15.5146 41.2652C16.0077 42.3334 16.7143 43 17.5 43C18.2857 43 18.9924 42.3333 19.4854 41.2678L29.7686 19.054C30.5596 17.3481 31 15.4426 31 13.4375C31 6.01538 24.9566 0 17.5 0Z" fill="#7BA130"/>
</g>
<path fill-rule="evenodd" clip-rule="evenodd" d="M20.25 7.4375C20.25 8.2625 19.575 8.9375 18.75 8.9375C17.925 8.9375 17.25 8.2625 17.25 7.4375C17.25 6.6125 17.925 5.9375 18.75 5.9375C19.575 5.9375 20.25 6.6125 20.25 7.4375ZM13.875 22.0625L15.975 11.4875L14.625 12.0125V14.5625H13.125V11.0375L16.9125 9.43249C17.64 9.12499 18.48 9.39499 18.9 10.0625L19.65 11.2625C20.25 12.3125 21.45 13.0625 22.875 13.0625V14.5625C21.225 14.5625 19.725 13.8125 18.75 12.6875L18.3 14.9375L19.875 16.4375V22.0625H18.375V17.5625L16.8 16.0625L15.45 22.0625H13.875Z" fill="white"/>
<line x1="23.75" y1="13.25" x2="23.75" y2="22.25" stroke="white"/>
<defs>
<filter id="filter0_d" x="0" y="0" width="35" height="51" filterUnits="userSpaceOnUse" color-interpolation-filters="sRGB">
<feFlood flood-opacity="0" result="BackgroundImageFix"/>
<feColorMatrix in="SourceAlpha" type="matrix" values="0 0 0 0 0 0 0 0 0 0 0 0 0 0 0 0 0 0 127 0"/>
<feOffset dy="4"/>
<feGaussianBlur stdDeviation="2"/>
<feColorMatrix type="matrix" values="0 0 0 0 0 0 0 0 0 0 0 0 0 0 0 0 0 0 0.25 0"/>
<feBlend mode="normal" in2="BackgroundImageFix" result="effect1_dropShadow"/>
<feBlend mode="normal" in="SourceGraphic" in2="effect1_dropShadow" result="shape"/>
</filter>
</defs>
</svg>
